<?xml version="1.0" standalone="no"?>
<!DOCTYPE svg PUBLIC "-//W3C//DTD SVG 20010904//EN"
 "http://www.w3.org/TR/2001/REC-SVG-20010904/DTD/svg10.dtd">
<svg version="1.0" xmlns="http://www.w3.org/2000/svg"
 width="1000.000000pt" height="699.000000pt" viewBox="0 0 1000.000000 699.000000"
 preserveAspectRatio="xMidYMid meet">

<g transform="translate(0.000000,699.000000) scale(0.100000,-0.100000)"
fill="#224957" stroke="none">
<path d="M2976 6214 c-85 -80 -202 -158 -278 -185 l-56 -21 35 -82 c43 -101
83 -237 83 -283 l0 -35 96 51 c182 96 337 227 386 326 l20 41 -60 61 c-32 33
-79 90 -103 127 -24 36 -46 66 -49 66 -3 -1 -36 -30 -74 -66z"/>
<path d="M1995 5799 c-121 -18 -229 -60 -294 -115 -18 -15 -54 -58 -80 -95
-48 -68 -48 -68 -39 -124 19 -126 79 -233 207 -367 l76 -81 70 46 c39 24 115
68 170 97 55 29 101 53 102 54 1 1 -23 31 -53 66 -79 93 -89 134 -81 330 4 85
10 165 13 178 7 25 6 25 -91 11z"/>
<path d="M2903 5410 c-119 -17 -260 -115 -316 -218 -54 -99 -57 -131 -57 -571
l0 -405 -47 -121 c-32 -84 -57 -130 -80 -154 -52 -52 -95 -44 -306 63 -172 86
-260 116 -344 116 -48 0 -53 -8 -22 -36 26 -23 64 -98 72 -142 13 -64 -26
-106 -75 -81 -13 6 -77 64 -143 129 -130 126 -181 165 -279 211 -96 45 -192
62 -321 56 -107 -4 -265 -33 -265 -47 0 -4 21 -11 47 -14 75 -11 169 -61 204
-109 74 -101 78 -239 18 -544 -61 -311 -57 -431 18 -514 42 -47 97 -65 223
-74 249 -19 297 -64 325 -315 11 -92 34 -150 80 -195 65 -65 130 -85 363 -111
23 -3 40 -9 37 -14 -3 -5 -10 -56 -15 -115 -14 -143 -146 -660 -326 -1272
l-39 -133 -117 0 c-72 0 -118 -4 -118 -10 0 -7 290 -10 850 -10 560 0 850 3
850 10 0 6 -48 10 -125 10 l-125 0 1 33 c0 17 13 86 27 152 l27 120 3008 3
c1993 1 3007 5 3007 12 0 6 -33 10 -80 10 l-80 0 0 93 c0 76 -4 101 -22 137
-26 51 -89 90 -145 90 l-33 0 0 228 c0 256 -7 298 -67 422 -51 107 -168 222
-275 270 -43 19 -77 37 -77 40 0 3 34 21 77 40 106 48 222 162 275 270 60 123
67 166 67 421 l0 226 49 5 c108 11 150 77 151 236 l0 102 -490 0 -490 0 0 670
c0 648 -1 673 -20 731 -57 167 -191 277 -367 299 -94 13 -331 12 -339 -1 -3
-5 60 -9 149 -9 85 0 178 -5 208 -10 137 -26 254 -116 312 -238 31 -66 32 -70
35 -234 l4 -168 -35 0 -35 0 -4 128 c-3 122 -5 131 -39 202 -59 123 -165 211
-290 239 -24 6 -104 11 -176 11 l-133 0 0 -75 0 -75 -35 0 -35 0 0 75 0 75
-580 0 -580 0 0 -75 0 -75 -36 0 -36 0 4 75 3 75 -607 0 -608 0 0 -75 0 -75
-35 0 -35 0 0 75 0 75 -550 0 -550 0 0 -75 0 -75 -35 0 -35 0 0 75 0 75 -238
0 c-247 0 -319 -9 -380 -47 l-27 -17 25 27 c34 39 133 85 205 97 33 5 140 10
238 10 111 0 177 4 177 10 0 12 -337 12 -417 0z m465 -467 l-3 -118 -252 -3
-253 -2 0 120 0 120 255 0 256 0 -3 -117z m672 -3 l0 -120 -255 0 -255 0 0
120 0 120 255 0 255 0 0 -120z m690 0 l0 -120 -255 0 -255 0 0 120 0 120 255
0 255 0 0 -120z m710 -15 l0 -135 -252 2 -253 3 -2 124 c-1 69 0 128 3 133 3
4 117 8 255 8 l249 0 0 -135z m688 3 l-3 -133 -252 -3 -253 -2 0 135 0 135
255 0 256 0 -3 -132z m1390 10 l3 -118 -256 0 -255 0 0 120 0 120 253 -2 252
-3 3 -117z m-688 -3 l0 -115 -255 0 -255 0 0 115 0 115 255 0 255 0 0 -115z
m950 -715 l0 -511 -137 3 -137 3 3 58 2 57 -245 0 -246 0 0 -240 0 -240 173
-2 172 -3 0 -75 0 -75 -172 -3 -173 -2 0 -240 0 -240 209 0 208 0 37 -55 c64
-97 185 -196 272 -225 19 -6 34 -15 34 -18 0 -4 -32 -22 -70 -40 -42 -20 -95
-56 -134 -92 -35 -33 -65 -60 -67 -60 -2 0 -4 73 -4 162 l0 163 -242 3 -243 2
0 -240 0 -240 196 0 196 0 -5 -22 c-2 -13 -12 -50 -21 -83 -13 -46 -16 -108
-16 -287 l0 -228 -32 0 c-48 -1 -112 -33 -139 -71 -21 -30 -24 -47 -27 -141
l-4 -108 -2116 1 -2117 1 120 25 c66 13 197 45 290 69 94 25 252 66 353 91
l183 47 -3 30 c-4 37 4 39 212 66 288 37 369 61 438 126 l46 44 173 0 173 0 0
145 0 145 -100 0 -100 0 0 125 0 125 40 0 40 0 0 115 0 115 30 0 30 0 0 95 0
95 -50 0 c-49 0 -50 0 -52 33 -4 97 6 137 36 137 20 0 25 6 31 40 4 21 4 48 0
59 -3 11 -1 22 5 26 5 3 10 23 10 44 l0 38 -212 6 c-117 3 -371 6 -563 6
l-351 2 1 -111 c0 -75 4 -110 11 -110 18 0 25 -43 18 -105 l-7 -55 -54 0 -54
0 7 -90 7 -90 -32 0 -31 0 0 -115 0 -115 -40 0 -40 0 0 -145 0 -145 145 0 145
0 0 -64 0 -63 -62 -6 c-35 -4 -160 -9 -278 -12 l-215 -6 -74 92 c-42 52 -84
117 -98 152 -13 33 -55 121 -92 196 -38 75 -81 165 -96 201 -15 36 -34 79 -41
97 -22 50 -18 60 43 88 103 47 248 151 321 231 111 120 181 283 182 420 0 65
-37 191 -74 252 -45 74 -109 134 -226 213 -316 213 -464 511 -327 657 l22 24
-30 -7 c-56 -14 -112 -43 -154 -80 l-41 -37 0 241 0 241 2615 0 2615 0 0 -510z
m-5087 68 c-60 -173 105 -433 403 -633 148 -100 229 -211 255 -350 48 -256
-136 -536 -458 -699 l-73 -36 0 67 c0 104 5 113 54 113 49 1 110 21 138 47 43
39 62 93 63 182 1 80 2 84 28 97 38 21 36 56 -8 95 -40 37 -48 58 -70 199 -10
58 -21 112 -26 121 -5 10 -2 24 8 39 20 29 22 92 3 115 -21 25 -73 45 -118 45
-21 0 -65 9 -98 21 -133 47 -344 34 -480 -30 -35 -16 -66 -26 -69 -21 -3 5
-20 12 -38 15 -17 4 -45 20 -62 36 -47 44 -121 72 -191 73 -79 0 -123 -26
-229 -134 -94 -96 -139 -123 -213 -124 -49 0 -57 3 -83 32 -16 18 -33 32 -38
32 -13 0 -35 -60 -35 -97 0 -27 -4 -33 -21 -33 -23 0 -64 25 -83 52 -20 27
-28 22 -47 -24 -24 -60 -23 -161 2 -219 46 -103 163 -184 313 -215 254 -54
450 63 509 303 28 114 30 117 65 102 27 -13 27 -13 19 -78 -4 -36 -8 -109 -8
-161 0 -80 4 -103 24 -144 46 -94 145 -166 248 -182 51 -8 52 -13 22 -127 -15
-54 -27 -81 -39 -84 -9 -2 -25 -20 -35 -40 -11 -20 -52 -59 -93 -90 -87 -64
-141 -118 -167 -168 l-20 -36 -80 6 c-146 12 -246 42 -304 91 -50 42 -72 97
-92 233 -37 242 -68 267 -376 300 -155 17 -199 54 -224 189 -13 67 1 190 47
412 75 366 28 546 -161 611 -22 7 -44 16 -48 20 -15 11 115 29 214 29 221 0
353 -66 564 -279 115 -117 152 -139 198 -122 51 20 50 129 -1 211 -30 49 -31
50 -9 50 70 -1 194 -46 329 -121 152 -85 229 -104 288 -74 41 21 64 58 110
177 46 120 82 175 142 218 58 43 69 40 51 -12z m-669 -532 c54 -16 121 -60
130 -83 11 -28 -3 -26 -39 5 -19 18 -49 39 -66 47 -41 22 -121 30 -159 16 -28
-9 -31 -9 -20 4 22 26 88 31 154 11z m692 -45 c27 -5 63 -15 79 -22 48 -19 6
-22 -63 -5 -121 32 -307 14 -410 -38 -58 -29 -69 -32 -53 -12 17 20 105 56
175 71 73 16 204 19 272 6z m6044 -120 c0 -85 -3 -102 -23 -132 -48 -72 -15
-69 -762 -69 -747 0 -714 -3 -762 69 -20 30 -23 47 -23 132 l0 99 785 0 785 0
0 -99z m-5806 69 c14 -5 32 -20 41 -34 14 -21 15 -31 5 -61 -16 -48 -29 -44
-23 8 6 52 -14 74 -74 79 -24 3 -46 7 -50 11 -10 11 72 8 101 -3z m-731 -12
c14 -12 10 -22 -42 -99 -47 -70 -61 -85 -75 -77 -21 12 -20 30 4 78 21 41 77
110 89 110 4 0 15 -6 24 -12z m741 -133 c19 -20 21 -28 46 -175 22 -130 34
-159 75 -186 34 -22 32 -53 -3 -66 -27 -11 -28 -11 -28 -102 1 -101 -12 -135
-64 -179 -39 -33 -103 -43 -202 -31 -43 5 -78 6 -78 2 0 -7 14 -11 75 -23 19
-4 20 -12 20 -135 0 -83 -4 -129 -10 -126 -109 45 -392 169 -398 175 -4 4 -1
26 7 49 8 23 20 70 27 104 9 47 21 73 46 101 18 21 36 51 40 67 5 28 9 30 48
30 26 0 48 6 55 15 11 13 7 14 -33 9 -42 -6 -49 -4 -76 24 -41 41 -42 83 -1
123 24 24 37 29 69 28 62 -4 119 46 153 135 8 21 44 70 79 107 56 60 68 68
101 69 20 0 43 -7 52 -15z m5596 -371 c0 -254 -7 -299 -67 -418 -51 -101 -162
-210 -268 -262 -47 -23 -80 -45 -80 -54 0 -9 33 -31 80 -54 104 -51 225 -169
272 -267 56 -116 63 -163 63 -413 l0 -226 -27 0 c-20 1 -34 10 -48 32 -21 34
-67 70 -161 128 -122 75 -282 263 -325 382 -23 60 -39 75 -39 34 0 -30 -46
-119 -95 -183 -63 -84 -167 -183 -252 -239 -84 -57 -143 -114 -143 -139 0 -11
-12 -15 -41 -15 l-41 0 4 253 c4 245 4 254 30 319 61 153 159 263 295 330 58
29 83 46 81 57 -2 9 -31 30 -65 47 -167 83 -282 222 -327 397 -13 51 -20 244
-16 490 l0 27 585 0 585 0 0 -226z m-3937 -191 c179 -6 197 -8 197 -24 0 -47
-6 -49 -131 -49 -73 0 -119 -4 -119 -10 0 -6 47 -10 120 -10 l120 0 0 -40 0
-40 -540 0 c-321 0 -540 4 -540 9 0 37 12 41 111 41 59 0 99 4 99 10 0 6 -40
10 -99 10 l-99 0 -4 48 c-3 26 -3 50 -1 55 5 9 619 9 886 0z m123 -207 c1 0
-1 -19 -5 -41 l-7 -40 -156 0 c-86 0 -160 -3 -164 -7 -4 -5 24 -8 62 -8 38 0
113 -3 167 -7 93 -6 97 -7 97 -30 l0 -23 -353 0 c-195 0 -416 3 -491 7 l-137
6 3 36 c3 34 5 36 47 43 60 10 64 18 8 18 -37 0 -47 4 -52 20 -3 11 -3 25 1
31 5 8 139 9 493 4 267 -4 487 -8 487 -9z m-2150 -187 c120 -50 223 -96 228
-100 8 -7 -17 -155 -28 -166 -4 -5 -427 276 -454 302 -10 9 -11 17 -1 39 7 15
18 25 24 22 6 -2 110 -46 231 -97z m1917 11 l327 0 0 -40 0 -40 -115 0 c-70 0
-115 -4 -115 -10 0 -6 45 -10 115 -10 l115 0 0 -25 0 -25 -590 0 -590 0 0 45
0 45 195 0 c123 0 195 4 195 10 0 6 -73 10 -199 10 -188 0 -199 1 -204 19 -3
11 -2 23 2 27 3 4 125 4 271 0 146 -3 412 -6 593 -6z m-1441 -660 c37 -117 41
-151 27 -220 -11 -57 -32 -101 -42 -90 -3 3 1 34 10 70 28 120 1 217 -142 514
-47 98 -85 187 -84 199 1 33 200 -375 231 -473z m1708 385 l0 -105 -590 0
-590 0 0 105 0 105 590 0 590 0 0 -105z m-80 -250 c0 -104 -2 -125 -15 -125
-12 0 -15 19 -15 115 l0 115 -575 0 c-377 0 -575 3 -575 10 0 7 203 10 590 10
l590 0 0 -125z m-990 0 c0 -68 -2 -75 -20 -75 -18 0 -20 7 -20 75 0 68 2 75
20 75 18 0 20 -7 20 -75z m130 0 c0 -73 -1 -75 -25 -75 -24 0 -25 2 -25 68 0
74 3 82 32 82 16 0 18 -9 18 -75z m130 0 c0 -73 -1 -75 -25 -75 -24 0 -25 2
-25 75 0 73 1 75 25 75 24 0 25 -2 25 -75z m592 38 c24 -21 23 -58 -2 -83 -26
-26 -46 -25 -75 5 -30 29 -31 49 -5 75 24 24 57 26 82 3z m3518 -268 c68 -88
190 -198 279 -251 79 -46 131 -97 116 -112 -3 -4 -11 0 -16 9 -4 9 -59 47
-120 85 -85 52 -130 89 -189 152 -80 86 -180 240 -180 276 0 13 13 -3 34 -42
19 -35 53 -87 76 -117z m-5207 -63 l161 -172 45 5 c92 10 554 35 559 30 3 -3
3 -7 1 -10 -3 -2 -142 -14 -309 -26 l-305 -22 -100 105 c-102 107 -255 290
-255 305 1 4 10 -3 21 -17 12 -14 93 -103 182 -198z m2027 23 l0 -125 -545 0
-545 0 0 125 0 125 545 0 545 0 0 -125z m-1730 24 l55 -70 215 6 c118 3 245 8
283 12 45 4 67 2 67 -5 0 -16 -38 -20 -319 -32 l-255 -11 -25 32 c-45 56 -81
112 -81 126 0 7 1 13 3 13 1 0 27 -32 57 -71z m614 -168 c-12 -12 -142 -27
-131 -15 9 9 129 33 136 27 3 -2 0 -7 -5 -12z m746 -9 c0 -16 -45 -51 -91 -71
-61 -27 -152 -46 -345 -70 -87 -11 -174 -25 -193 -31 -19 -5 -36 -9 -37 -7 -5
5 -44 159 -44 172 0 13 47 15 355 15 195 0 355 -4 355 -8z m4149 -210 c63 -31
76 -60 79 -178 l4 -104 -786 0 -786 0 0 99 c0 85 3 102 23 132 48 72 15 69
762 69 618 0 673 -1 704 -18z m-5769 -279 c-1 -41 -69 -328 -78 -331 -7 -2
-12 5 -12 17 0 20 55 280 65 309 5 13 25 17 25 5z"/>
<path d="M2904 4940 c1 -44 4 -80 9 -80 4 0 7 30 7 67 0 76 9 74 34 -9 9 -32
21 -58 25 -58 10 0 55 120 48 127 -3 2 -13 -20 -23 -51 -10 -31 -20 -53 -23
-50 -3 3 -15 33 -27 67 -11 35 -27 63 -36 65 -12 2 -14 -11 -14 -78z"/>
<path d="M3034 4998 c3 -13 6 -49 6 -80 0 -32 5 -58 10 -58 6 0 10 33 10 80 0
67 -3 80 -16 80 -12 0 -15 -6 -10 -22z"/>
<path d="M3158 4961 c18 -13 23 -25 20 -52 -2 -29 -7 -34 -30 -37 -40 -5 -58
36 -33 74 12 19 13 25 3 22 -22 -7 -33 -54 -20 -83 12 -25 52 -34 78 -17 34
22 22 95 -18 105 l-23 6 23 -18z"/>
<path d="M3260 4971 c-8 -6 -18 -7 -22 -5 -4 3 -7 -21 -6 -53 2 -57 2 -57 5
-11 3 35 9 51 24 59 30 16 47 -4 52 -59 l3 -47 2 52 c2 43 -2 54 -17 63 -23
12 -22 12 -41 1z"/>
<path d="M3623 5013 c27 -4 27 -5 27 -79 0 -43 4 -74 10 -74 6 0 10 31 10 74
0 74 0 75 28 79 15 2 -2 4 -38 4 -36 0 -53 -2 -37 -4z"/>
<path d="M3899 4973 c-27 -7 -41 -50 -27 -81 11 -21 20 -27 47 -27 22 0 36 6
39 15 4 13 3 13 -11 2 -21 -18 -61 -11 -65 11 -3 14 4 17 42 17 52 0 60 16 26
50 -20 20 -23 21 -51 13z m39 -15 c23 -23 13 -38 -23 -38 -39 0 -48 21 -17 39
22 13 26 13 40 -1z"/>
<path d="M3744 4920 l1 -55 43 0 42 -1 -2 56 c-1 47 -2 49 -5 15 -5 -46 -18
-65 -44 -65 -19 0 -24 13 -33 75 -2 17 -3 5 -2 -25z"/>
<path d="M4254 4995 c17 -74 37 -135 45 -135 5 0 17 32 27 70 10 39 21 70 24
70 3 0 14 -31 24 -70 10 -38 22 -70 27 -70 8 0 11 8 29 80 6 25 14 53 17 64 3
10 1 16 -5 13 -5 -4 -15 -34 -22 -67 -7 -33 -17 -60 -21 -60 -5 0 -9 6 -9 13
0 26 -31 117 -40 117 -5 0 -17 -26 -26 -57 -9 -32 -19 -65 -22 -73 -2 -8 -13
16 -22 53 -18 67 -39 111 -26 52z"/>
<path d="M4680 4995 c0 -22 -3 -25 -24 -19 -44 11 -72 -47 -46 -97 8 -14 20
-18 48 -17 l37 1 1 79 c0 43 -4 78 -8 78 -4 0 -8 -11 -8 -25z m-12 -37 c18
-18 15 -77 -4 -85 -38 -14 -66 35 -44 76 12 24 30 27 48 9z"/>
<path d="M4487 4962 c-20 -22 -22 -73 -5 -90 17 -17 63 -15 78 3 15 18 7 19
-20 3 -15 -10 -25 -10 -38 -2 -31 20 -20 39 26 42 45 3 54 19 26 46 -21 21
-47 20 -67 -2z m63 -12 c10 -18 8 -20 -30 -20 -45 0 -47 2 -24 24 21 22 41 20
54 -4z"/>
<path d="M5015 5011 c29 -6 30 -8 36 -81 l5 -75 2 77 2 77 33 4 c17 2 1 4 -38
4 -44 0 -59 -2 -40 -6z"/>
<path d="M5140 4940 c0 -47 4 -80 10 -80 6 0 10 20 10 45 0 32 5 47 18 53 30
16 42 3 42 -49 0 -27 3 -49 8 -49 6 0 7 28 3 96 -1 18 -30 25 -52 14 -17 -10
-19 -7 -19 20 0 16 -4 30 -10 30 -6 0 -10 -33 -10 -80z"/>
<path d="M5271 4968 c-1 -4 9 -33 20 -64 l22 -58 -24 -19 c-21 -17 -22 -19 -4
-16 14 3 28 25 47 74 33 85 35 109 3 40 l-23 -50 -11 30 c-16 44 -30 71 -30
63z"/>
<path d="M5720 4940 c0 -47 4 -80 10 -80 6 0 10 18 10 39 0 40 0 40 43 44 l42
4 -42 1 c-40 2 -43 4 -43 31 0 28 2 30 48 34 46 3 46 3 -10 5 l-58 2 0 -80z"/>
<path d="M5895 4969 c-4 -5 -13 -8 -21 -5 -11 4 -14 -7 -14 -49 0 -30 5 -55
10 -55 6 0 10 20 10 45 0 38 4 47 22 54 13 5 17 10 10 15 -6 3 -14 1 -17 -5z"/>
<path d="M5951 4920 c24 -62 24 -86 2 -99 -16 -9 -16 -10 -2 -11 11 0 27 25
48 77 17 42 29 78 27 81 -5 5 -36 -65 -36 -81 0 -20 -17 7 -30 46 -6 20 -15
37 -20 37 -4 0 0 -23 11 -50z"/>
<path d="M7098 5019 c-10 -5 -18 -21 -18 -34 0 -19 9 -26 51 -40 42 -14 50
-21 47 -38 -4 -29 -66 -37 -85 -11 -7 10 -16 15 -19 11 -11 -11 15 -34 43 -40
15 -3 38 -1 51 4 19 7 23 15 20 41 -3 29 -8 34 -50 46 -48 13 -58 28 -36 50
17 17 44 15 63 -4 9 -9 18 -14 21 -11 3 2 -2 12 -11 21 -19 18 -51 20 -77 5z"/>
<path d="M7232 4933 c-2 -45 1 -54 21 -64 21 -11 21 -11 5 7 -9 10 -18 39 -21
64 l-4 45 -1 -52z"/>
<path d="M7310 4941 c0 -22 -7 -46 -15 -55 -14 -13 -13 -15 5 -13 17 1 20 8
20 54 0 29 -2 53 -5 53 -3 0 -5 -18 -5 -39z"/>
<path d="M7362 4920 c1 -47 2 -49 5 -15 5 48 19 67 47 63 17 -2 22 -12 27 -53
l6 -50 -1 55 -1 55 -42 0 -43 1 2 -56z"/>
<path d="M6428 5019 c-21 -12 -23 -42 -5 -58 8 -6 28 -14 45 -17 63 -13 64
-64 2 -64 -15 0 -33 7 -40 15 -16 19 -31 19 -24 1 9 -24 63 -38 93 -23 50 24
37 70 -23 81 -19 4 -40 14 -47 22 -11 14 -10 18 6 30 27 20 52 17 69 -8 13
-18 16 -19 16 -6 0 32 -56 48 -92 27z"/>
<path d="M6701 5003 c0 -12 -7 -24 -13 -26 -10 -4 -10 -6 0 -6 8 -1 12 -18 12
-50 0 -34 4 -51 15 -55 8 -3 15 -1 15 4 0 6 -4 10 -10 10 -5 0 -10 20 -10 45
0 29 4 45 13 45 8 0 9 2 1 8 -7 4 -14 16 -17 27 -4 19 -5 19 -6 -2z"/>
<path d="M6570 4965 c-9 -10 -9 -15 -1 -15 6 0 11 5 11 10 0 6 14 10 31 10 41
0 37 -33 -5 -40 -39 -7 -56 -34 -34 -56 11 -11 23 -14 39 -8 13 4 29 7 36 6
10 -2 11 27 4 96 -2 17 -66 15 -81 -3z m70 -55 c0 -23 -32 -43 -54 -34 -27 10
-18 33 17 43 17 5 33 10 35 10 1 1 2 -8 2 -19z"/>
<path d="M2870 4240 l0 -240 933 0 932 0 -3 240 -3 240 -929 0 -930 0 0 -240z
m466 35 c33 -94 44 -116 50 -100 5 11 24 65 44 120 34 97 36 100 68 103 l33 3
-3 -158 c-3 -155 -3 -158 -25 -161 -23 -3 -23 -2 -24 115 l-1 118 -36 -107
c-58 -168 -73 -169 -127 -9 -20 61 -38 111 -40 111 -2 0 -4 -51 -3 -112 0
-107 -1 -113 -21 -116 -21 -3 -21 0 -21 158 l0 161 33 -3 c32 -3 33 -5 73
-123z m884 75 c0 -47 1 -50 19 -40 31 16 66 12 95 -11 25 -20 26 -24 26 -120
0 -92 -1 -99 -20 -99 -18 0 -20 7 -20 84 0 109 -26 142 -79 99 -17 -15 -21
-31 -23 -98 -3 -72 -5 -80 -23 -80 -19 0 -20 8 -23 158 l-3 157 26 0 c23 0 25
-3 25 -50z m-110 0 c0 -33 3 -40 20 -40 11 0 20 -7 20 -15 0 -8 -9 -15 -20
-15 -19 0 -21 -5 -18 -77 2 -61 6 -78 18 -78 8 0 16 -10 18 -22 3 -20 -1 -23
-27 -23 -50 0 -61 21 -61 116 0 68 -3 84 -15 84 -8 0 -15 7 -15 15 0 8 7 15
15 15 10 0 15 10 15 26 0 24 23 53 43 54 4 0 7 -18 7 -40z m-364 -64 c29 -29
34 -41 34 -80 0 -83 -39 -126 -113 -126 -108 0 -142 173 -45 227 43 23 87 16
124 -21z m218 24 c33 -12 48 -65 44 -155 -3 -64 -5 -70 -25 -73 -22 -3 -23 -1
-23 82 0 107 -24 140 -76 102 -16 -12 -20 -29 -23 -100 -3 -77 -5 -86 -22 -86
-18 0 -19 9 -19 115 0 108 1 115 20 115 11 0 20 -5 20 -11 0 -5 10 -3 22 5 26
18 46 20 82 6z"/>
<path d="M3636 4265 c-34 -34 -32 -116 4 -135 51 -28 90 3 90 72 0 67 -53 103
-94 63z"/>
<path d="M7020 4240 l0 -240 245 0 245 0 0 240 0 240 -245 0 -245 0 0 -240z"/>
<path d="M5770 3205 c-129 -29 -201 -118 -202 -248 -1 -157 109 -266 277 -275
72 -3 85 -1 135 25 69 36 126 105 171 209 28 65 34 91 34 150 0 81 -14 106
-75 132 -51 22 -256 26 -340 7z m292 -16 c34 -8 62 -22 81 -41 28 -28 29 -33
25 -93 -6 -71 -63 -202 -116 -265 -97 -116 -271 -122 -386 -12 -53 51 -76 104
-76 177 0 85 38 159 101 199 63 40 261 58 371 35z"/>
<path d="M2864 3324 c-19 -20 -32 -40 -28 -45 3 -5 20 7 38 26 24 26 42 35 65
35 17 0 31 5 31 10 0 6 -16 10 -36 10 -29 0 -44 -8 -70 -36z"/>
<path d="M2927 3264 c-12 -13 -7 -51 8 -64 12 -10 16 -9 21 3 13 35 -9 81 -29
61z"/>
<path d="M2527 3172 c-18 -20 -23 -52 -8 -52 5 0 12 11 15 25 4 16 13 25 26
25 10 0 22 5 25 10 11 18 -41 11 -58 -8z"/>
<path d="M2887 2963 c-9 -3 -15 -8 -12 -13 3 -5 11 -7 19 -4 7 3 31 1 54 -5
26 -5 42 -5 42 0 0 15 -69 30 -103 22z"/>
<path d="M7661 2747 c-14 -6 -26 -17 -28 -23 -10 -30 195 -179 304 -220 41
-16 43 -16 108 14 75 36 198 118 239 161 67 70 -1 97 -163 63 -130 -27 -154
-27 -283 -2 -120 23 -144 24 -177 7z m179 -27 c125 -25 162 -25 270 0 129 30
202 24 171 -14 -10 -11 -18 -13 -31 -6 -28 15 -76 12 -176 -10 -113 -25 -133
-25 -279 1 -149 26 -156 29 -130 39 32 13 67 11 175 -10z"/>
<path d="M7963 2384 c-3 -8 -1 -20 6 -27 8 -8 11 -4 11 16 0 30 -7 35 -17 11z"/>
<path d="M7963 2204 c-3 -8 -1 -20 6 -27 8 -8 11 -4 11 16 0 30 -7 35 -17 11z"/>
<path d="M3740 2295 l0 -85 45 0 45 0 0 85 0 85 -45 0 -45 0 0 -85z m70 0 c0
-63 -1 -65 -25 -65 -24 0 -25 2 -25 65 0 63 1 65 25 65 24 0 25 -2 25 -65z"/>
<path d="M3870 2296 l0 -86 45 0 46 0 -3 83 -3 82 -42 3 -43 3 0 -85z m68 2
c-3 -57 -5 -63 -25 -66 -22 -3 -23 0 -23 62 0 64 1 66 25 66 25 0 26 -1 23
-62z"/>
<path d="M4000 2295 l0 -85 40 0 40 0 0 85 0 85 -40 0 -40 0 0 -85z m60 0 c0
-58 -2 -65 -20 -65 -18 0 -20 7 -20 65 0 58 2 65 20 65 18 0 20 -7 20 -65z"/>
<path d="M4541 2344 c-12 -15 -21 -37 -21 -49 0 -12 9 -34 21 -49 16 -20 29
-26 59 -26 30 0 43 6 59 26 12 15 21 37 21 49 0 12 -9 34 -21 49 -16 20 -29
26 -59 26 -30 0 -43 -6 -59 -26z m101 -11 c22 -20 23 -42 2 -71 -28 -41 -104
-18 -104 31 0 49 64 75 102 40z"/>
<path d="M3940 1776 l0 -96 43 0 42 0 -2 92 -2 93 -40 3 -41 3 0 -95z m68 -3
c3 -72 3 -73 -23 -73 -25 0 -25 1 -25 76 0 72 1 75 23 72 20 -3 22 -9 25 -75z"/>
<path d="M4070 1775 l0 -95 40 0 40 0 0 95 0 95 -40 0 -40 0 0 -95z m60 0 c0
-68 -2 -75 -20 -75 -18 0 -20 7 -20 75 0 68 2 75 20 75 18 0 20 -7 20 -75z"/>
<path d="M4200 1775 l0 -95 40 0 40 0 0 95 0 95 -40 0 -40 0 0 -95z m60 0 c0
-68 -2 -75 -20 -75 -18 0 -20 7 -20 75 0 68 2 75 20 75 18 0 20 -7 20 -75z"/>
<path d="M4665 1825 c-31 -30 -32 -66 -2 -101 33 -38 81 -37 115 1 64 75 -44
170 -113 100z m95 -15 c24 -24 25 -38 4 -68 -18 -26 -60 -29 -86 -5 -22 20
-23 42 -2 71 19 28 57 29 84 2z"/>
<path d="M3385 5410 c-4 -7 182 -10 549 -10 364 0 556 3 556 10 0 7 -190 10
-549 10 -356 0 -552 -4 -556 -10z"/>
<path d="M4555 5410 c-4 -7 202 -10 610 -10 408 0 614 3 610 10 -4 6 -218 10
-610 10 -392 0 -606 -4 -610 -10z"/>
<path d="M5845 5410 c-4 -7 186 -10 580 -10 376 0 584 3 580 10 -8 13 -1151
14 -1160 0z"/>
<path d="M1986 4643 c-10 -30 11 -122 39 -169 16 -28 57 -67 114 -109 55 -40
94 -77 101 -95 24 -57 43 -24 43 71 -1 91 -34 135 -158 209 -38 23 -84 57
-101 77 -29 33 -32 34 -38 16z m38 -52 c4 -5 41 -30 84 -55 44 -24 93 -61 110
-80 35 -40 57 -106 47 -144 l-6 -25 -37 35 c-20 19 -63 54 -95 77 -66 48 -102
98 -115 159 -9 38 -2 56 12 33z"/>
<path d="M7924 4457 c-3 -8 -4 -54 -2 -103 l3 -89 113 -3 112 -3 0 106 0 105
-110 0 c-83 0 -112 -3 -116 -13z m176 -4 c0 -4 -14 -22 -32 -40 l-32 -33 -33
32 c-18 18 -33 35 -33 39 0 3 29 7 65 8 36 1 65 -2 65 -6z m25 -151 c-3 -3
-21 10 -40 28 l-35 34 37 39 38 38 3 -67 c2 -36 0 -69 -3 -72z m-138 96 l33
-32 -32 -33 c-18 -18 -36 -33 -40 -33 -4 0 -8 29 -8 65 0 36 3 65 7 65 4 0 22
-14 40 -32z m83 -83 l34 -35 -69 0 -69 0 34 35 c19 19 34 35 35 35 1 0 16 -16
35 -35z"/>
<path d="M8290 4410 c0 -6 83 -10 230 -10 147 0 230 4 230 10 0 6 -83 10 -230
10 -147 0 -230 -4 -230 -10z"/>
<path d="M8290 4330 c0 -6 65 -10 175 -10 110 0 175 4 175 10 0 6 -65 10 -175
10 -110 0 -175 -4 -175 -10z"/>
<path d="M7931 4086 c-8 -9 -11 -46 -9 -107 l3 -94 110 0 110 0 0 105 0 105
-101 3 c-78 2 -104 -1 -113 -12z m197 -98 l3 -88 -96 0 -95 0 0 83 c0 46 3 87
7 91 4 4 46 5 93 4 l85 -3 3 -87z"/>
<path d="M8333 4043 c26 -2 67 -2 90 0 23 2 2 3 -48 3 -49 0 -68 -1 -42 -3z"/>
<path d="M8568 4043 c34 -2 90 -2 125 0 34 2 6 3 -63 3 -69 0 -97 -1 -62 -3z"/>
<path d="M8290 3960 c0 -6 73 -10 200 -10 127 0 200 4 200 10 0 6 -73 10 -200
10 -127 0 -200 -4 -200 -10z"/>
</g>
</svg>
